{
date = "2013-12-02 21:40:35 +0000";
designer = "Shinji Pons";
designerURL = www.shinjipons.com;
familyName = "Modulo 20";
fontMaster = (
{
alignmentZones = (
"{1280, 10}",
"{0, -10}"
);
ascender = 1280;
capHeight = 1280;
customParameters = (
{
name = familyName;
value = "Modulo 06";
}
);
descender = 0;
guideLines = (
{
position = "{1534, 540}";
},
{
angle = 90;
position = "{820, -124}";
},
{
angle = 90;
position = "{620, -117}";
},
{
position = "{1533, 740}";
},
{
angle = 90;
position = "{80, -86}";
},
{
angle = 90;
position = "{1160, -69}";
},
{
position = "{1520, 1080}";
},
{
position = "{1510, 200}";
},
{
angle = 90;
position = "{1360, -75}";
},
{
angle = 90;
position = "{280, -90}";
},
{
position = "{-120, 1180}";
},
{
position = "{-120, 640}";
},
{
angle = 90;
position = "{180, -200}";
},
{
position = "{-120, 100}";
},
{
angle = 90;
position = "{720, -200}";
},
{
angle = 90;
position = "{1260, -200}";
}
);
horizontalStems = (
60
);
id = "940E2F63-624A-4C3D-A909-721782B4CF41";
verticalStems = (
60
);
weightValue = 6;
widthValue = 128;
xHeight = 1280;
}
);
glyphs = (
{
glyphname = A;
lastChange = "2014-01-05 15:06:59 +0000";
layers = (
{
guideLines = (
{
position = "{1029, 321}";
showMeasurement = 1;
},
{
angle = 90;
position = "{511, 1025}";
showMeasurement = 1;
}
);
layerId = "940E2F63-624A-4C3D-A909-721782B4CF41";
name = Regular;
paths = (
{
closed = 1;
nodes = (
"180 1280 LINE SMOOTH",
"125 1280 OFFCURVE",
"80 1235 OFFCURVE",
"80 1180 CURVE SMOOTH",
"80 1125 OFFCURVE",
"125 1080 OFFCURVE",
"180 1080 CURVE SMOOTH",
"1160 1080 LINE",
"1160 200 LINE",
"280 200 LINE",
"280 540 LINE",
"720 540 LINE SMOOTH",
"775 540 OFFCURVE",
"820 585 OFFCURVE",
"820 640 CURVE SMOOTH",
"820 695 OFFCURVE",
"775 740 OFFCURVE",
"720 740 CURVE SMOOTH",
"180 740 LINE SMOOTH",
"125 740 OFFCURVE",
"80 695 OFFCURVE",
"80 640 CURVE SMOOTH",
"80 100 LINE SMOOTH",
"80 45 OFFCURVE",
"125 0 OFFCURVE",
"180 0 CURVE SMOOTH",
"1260 0 LINE SMOOTH",
"1315 0 OFFCURVE",
"1360 45 OFFCURVE",
"1360 100 CURVE SMOOTH",
"1360 1180 LINE SMOOTH",
"1360 1235 OFFCURVE",
"1315 1280 OFFCURVE",
"1260 1280 CURVE SMOOTH"
);
}
);
width = 1440;
}
);
unicode = 0041;
},
{
glyphname = B;
lastChange = "2014-01-05 15:06:59 +0000";
layers = (
{
layerId = "940E2F63-624A-4C3D-A909-721782B4CF41";
name = Regular;
paths = (
{
closed = 1;
nodes = (
"180 1280 LINE SMOOTH",
"125 1280 OFFCURVE",
"80 1235 OFFCURVE",
"80 1180 CURVE SMOOTH",
"80 100 LINE SMOOTH",
"80 45 OFFCURVE",
"125 0 OFFCURVE",
"180 0 CURVE SMOOTH",
"235 0 OFFCURVE",
"280 45 OFFCURVE",
"280 100 CURVE SMOOTH",
"280 1080 LINE",
"1160 1080 LINE",
"1160 740 LINE",
"720 740 LINE SMOOTH",
"665 740 OFFCURVE",
"620 695 OFFCURVE",
"620 640 CURVE SMOOTH",
"620 585 OFFCURVE",
"665 540 OFFCURVE",
"720 540 CURVE SMOOTH",
"1160 540 LINE",
"1160 200 LINE",
"720 200 LINE SMOOTH",
"665 200 OFFCURVE",
"620 155 OFFCURVE",
"620 100 CURVE SMOOTH",
"620 45 OFFCURVE",
"665 0 OFFCURVE",
"720 0 CURVE SMOOTH",
"1260 0 LINE SMOOTH",
"1315 0 OFFCURVE",
"1360 45 OFFCURVE",
"1360 100 CURVE SMOOTH",
"1360 1180 LINE SMOOTH",
"1360 1235 OFFCURVE",
"1315 1280 OFFCURVE",
"1260 1280 CURVE SMOOTH"
);
}
);
width = 1440;
}
);
unicode = 0042;
},
{
glyphname = C;
lastChange = "2014-01-05 15:06:59 +0000";
layers = (
{
layerId = "940E2F63-624A-4C3D-A909-721782B4CF41";
name = Regular;
paths = (
{
closed = 1;
nodes = (
"180 1280 LINE SMOOTH",
"125 1280 OFFCURVE",
"80 1235 OFFCURVE",
"80 1180 CURVE SMOOTH",
"80 100 LINE SMOOTH",
"80 45 OFFCURVE",
"125 0 OFFCURVE",
"180 0 CURVE SMOOTH",
"1260 0 LINE SMOOTH",
"1315 0 OFFCURVE",
"1360 45 OFFCURVE",
"1360 100 CURVE SMOOTH",
"1360 155 OFFCURVE",
"1315 200 OFFCURVE",
"1260 200 CURVE SMOOTH",
"280 200 LINE",
"280 1080 LINE",
"1260 1080 LINE SMOOTH",
"1315 1080 OFFCURVE",
"1360 1125 OFFCURVE",
"1360 1180 CURVE SMOOTH",
"1360 1235 OFFCURVE",
"1315 1280 OFFCURVE",
"1260 1280 CURVE SMOOTH"
);
}
);
width = 1440;
}
);
unicode = 0043;
},
{
glyphname = D;
lastChange = "2014-01-05 15:06:59 +0000";
layers = (
{
layerId = "940E2F63-624A-4C3D-A909-721782B4CF41";
name = Regular;
paths = (
{
closed = 1;
nodes = (
"180 1280 LINE SMOOTH",
"125 1280 OFFCURVE",
"80 1235 OFFCURVE",
"80 1180 CURVE SMOOTH",
"80 1125 OFFCURVE",
"125 1080 OFFCURVE",
"180 1080 CURVE SMOOTH",
"1160 1080 LINE",
"1160 200 LINE",
"280 200 LINE",
"280 640 LINE SMOOTH",
"280 695 OFFCURVE",
"235 740 OFFCURVE",
"180 740 CURVE SMOOTH",
"125 740 OFFCURVE",
"80 695 OFFCURVE",
"80 640 CURVE SMOOTH",
"80 100 LINE SMOOTH",
"80 45 OFFCURVE",
"125 0 OFFCURVE",
"180 0 CURVE SMOOTH",
"1260 0 LINE SMOOTH",
"1315 0 OFFCURVE",
"1360 45 OFFCURVE",
"1360 100 CURVE SMOOTH",
"1360 1180 LINE SMOOTH",
"1360 1235 OFFCURVE",
"1315 1280 OFFCURVE",
"1260 1280 CURVE SMOOTH"
);
}
);
width = 1440;
}
);
unicode = 0044;
},
{
glyphname = E;
lastChange = "2014-01-05 15:06:59 +0000";
layers = (
{
layerId = "940E2F63-624A-4C3D-A909-721782B4CF41";
name = Regular;
paths = (
{
closed = 1;
nodes = (
"720 1280 LINE SMOOTH",
"665 1280 OFFCURVE",
"620 1235 OFFCURVE",
"620 1180 CURVE SMOOTH",
"620 1125 OFFCURVE",
"665 1080 OFFCURVE",
"720 1080 CURVE SMOOTH",
"1160 1080 LINE",
"1160 740 LINE",
"280 740 LINE",
"280 1180 LINE SMOOTH",
"280 1235 OFFCURVE",
"235 1280 OFFCURVE",
"180 1280 CURVE SMOOTH",
"125 1280 OFFCURVE",
"80 1235 OFFCURVE",
"80 1180 CURVE SMOOTH",
"80 100 LINE SMOOTH",
"80 45 OFFCURVE",
"125 0 OFFCURVE",
"180 0 CURVE SMOOTH",
"1260 0 LINE SMOOTH",
"1315 0 OFFCURVE",
"1360 45 OFFCURVE",
"1360 100 CURVE SMOOTH",
"1360 155 OFFCURVE",
"1315 200 OFFCURVE",
"1260 200 CURVE SMOOTH",
"280 200 LINE",
"280 540 LINE",
"1260 540 LINE SMOOTH",
"1315 540 OFFCURVE",
"1360 585 OFFCURVE",
"1360 640 CURVE SMOOTH",
"1360 1180 LINE SMOOTH",
"1360 1235 OFFCURVE",
"1315 1280 OFFCURVE",
"1260 1280 CURVE SMOOTH"
);
}
);
width = 1440;
}
);
unicode = 0045;
},
{
glyphname = F;
lastChange = "2014-01-05 15:06:59 +0000";
layers = (
{
layerId = "940E2F63-624A-4C3D-A909-721782B4CF41";
name = Regular;
paths = (
{
closed = 1;
nodes = (
"180 1280 LINE SMOOTH",
"125 1280 OFFCURVE",
"80 1235 OFFCURVE",
"80 1180 CURVE SMOOTH",
"80 100 LINE SMOOTH",
"80 45 OFFCURVE",
"125 0 OFFCURVE",
"180 0 CURVE SMOOTH",
"235 0 OFFCURVE",
"280 45 OFFCURVE",
"280 100 CURVE SMOOTH",
"280 540 LINE",
"1260 540 LINE SMOOTH",
"1315 540 OFFCURVE",
"1360 585 OFFCURVE",
"1360 640 CURVE SMOOTH",
"1360 695 OFFCURVE",
"1315 740 OFFCURVE",
"1260 740 CURVE SMOOTH",
"280 740 LINE",
"280 1080 LINE",
"1260 1080 LINE SMOOTH",
"1315 1080 OFFCURVE",
"1360 1125 OFFCURVE",
"1360 1180 CURVE SMOOTH",
"1360 1235 OFFCURVE",
"1315 1280 OFFCURVE",
"1260 1280 CURVE SMOOTH"
);
}
);
width = 1440;
}
);
unicode = 0046;
},
{
glyphname = H;
lastChange = "2014-01-05 15:06:59 +0000";
layers = (
{
layerId = "940E2F63-624A-4C3D-A909-721782B4CF41";
name = Regular;
paths = (
{
closed = 1;
nodes = (
"1205 1280 OFFCURVE",
"1160 1235 OFFCURVE",
"1160 1180 CURVE SMOOTH",
"1160 740 LINE",
"280 740 LINE",
"280 1180 LINE SMOOTH",
"280 1235 OFFCURVE",
"235 1280 OFFCURVE",
"180 1280 CURVE SMOOTH",
"125 1280 OFFCURVE",
"80 1235 OFFCURVE",
"80 1180 CURVE SMOOTH",
"80 100 LINE SMOOTH",
"80 45 OFFCURVE",
"125 0 OFFCURVE",
"180 0 CURVE SMOOTH",
"235 0 OFFCURVE",
"280 45 OFFCURVE",
"280 100 CURVE SMOOTH",
"280 540 LINE",
"1160 540 LINE",
"1160 100 LINE SMOOTH",
"1160 45 OFFCURVE",
"1205 0 OFFCURVE",
"1260 0 CURVE SMOOTH",
"1315 0 OFFCURVE",
"1360 45 OFFCURVE",
"1360 100 CURVE SMOOTH",
"1360 1180 LINE SMOOTH",
"1360 1235 OFFCURVE",
"1315 1280 OFFCURVE",
"1260 1280 CURVE SMOOTH"
);
}
);
width = 1440;
}
);
unicode = 0048;
},
{
glyphname = J;
lastChange = "2014-01-05 15:06:59 +0000";
layers = (
{
layerId = "940E2F63-624A-4C3D-A909-721782B4CF41";
name = Regular;
paths = (
{
closed = 1;
nodes = (
"720 1280 LINE SMOOTH",
"665 1280 OFFCURVE",
"620 1235 OFFCURVE",
"620 1180 CURVE SMOOTH",
"620 1125 OFFCURVE",
"665 1080 OFFCURVE",
"720 1080 CURVE SMOOTH",
"1160 1080 LINE",
"1160 200 LINE",
"180 200 LINE SMOOTH",
"125 200 OFFCURVE",
"80 155 OFFCURVE",
"80 100 CURVE SMOOTH",
"80 45 OFFCURVE",
"125 0 OFFCURVE",
"180 0 CURVE SMOOTH",
"1260 0 LINE SMOOTH",
"1315 0 OFFCURVE",
"1360 45 OFFCURVE",
"1360 100 CURVE SMOOTH",
"1360 1180 LINE SMOOTH",
"1360 1235 OFFCURVE",
"1315 1280 OFFCURVE",
"1260 1280 CURVE SMOOTH"
);
}
);
width = 1440;
}
);
unicode = 004A;
},
{
glyphname = K;
lastChange = "2014-01-05 15:06:59 +0000";
layers = (
{
layerId = "940E2F63-624A-4C3D-A909-721782B4CF41";
name = Regular;
paths = (
{
closed = 1;
nodes = (
"720 1280 LINE SMOOTH",
"665 1280 OFFCURVE",
"620 1235 OFFCURVE",
"620 1180 CURVE SMOOTH",
"620 740 LINE",
"280 740 LINE",
"280 1180 LINE SMOOTH",
"280 1235 OFFCURVE",
"235 1280 OFFCURVE",
"180 1280 CURVE SMOOTH",
"125 1280 OFFCURVE",
"80 1235 OFFCURVE",
"80 1180 CURVE SMOOTH",
"80 100 LINE SMOOTH",
"80 45 OFFCURVE",
"125 0 OFFCURVE",
"180 0 CURVE SMOOTH",
"235 0 OFFCURVE",
"280 45 OFFCURVE",
"280 100 CURVE SMOOTH",
"280 540 LINE",
"1160 540 LINE",
"1160 100 LINE SMOOTH",
"1160 45 OFFCURVE",
"1205 0 OFFCURVE",
"1260 0 CURVE SMOOTH",
"1315 0 OFFCURVE",
"1360 45 OFFCURVE",
"1360 100 CURVE SMOOTH",
"1360 640 LINE SMOOTH",
"1360 695 OFFCURVE",
"1315 740 OFFCURVE",
"1260 740 CURVE SMOOTH",
"820 740 LINE",
"820 1080 LINE",
"1260 1080 LINE SMOOTH",
"1315 1080 OFFCURVE",
"1360 1125 OFFCURVE",
"1360 1180 CURVE SMOOTH",
"1360 1235 OFFCURVE",
"1315 1280 OFFCURVE",
"1260 1280 CURVE SMOOTH"
);
}
);
width = 1440;
}
);
unicode = 004B;
},
{
glyphname = L;
lastChange = "2014-01-05 15:06:59 +0000";
layers = (
{
layerId = "940E2F63-624A-4C3D-A909-721782B4CF41";
name = Regular;
paths = (
{
closed = 1;
nodes = (
"125 1280 OFFCURVE",
"80 1235 OFFCURVE",
"80 1180 CURVE SMOOTH",
"80 100 LINE SMOOTH",
"80 45 OFFCURVE",
"125 0 OFFCURVE",
"180 0 CURVE SMOOTH",
"1260 0 LINE SMOOTH",
"1315 0 OFFCURVE",
"1360 45 OFFCURVE",
"1360 100 CURVE SMOOTH",
"1360 155 OFFCURVE",
"1315 200 OFFCURVE",
"1260 200 CURVE SMOOTH",
"280 200 LINE",
"280 1180 LINE SMOOTH",
"280 1235 OFFCURVE",
"235 1280 OFFCURVE",
"180 1280 CURVE SMOOTH"
);
}
);
width = 1440;
}
);
unicode = 004C;
},
{
glyphname = M;
lastChange = "2014-01-05 15:06:59 +0000";
layers = (
{
layerId = "940E2F63-624A-4C3D-A909-721782B4CF41";
name = Regular;
paths = (
{
closed = 1;
nodes = (
"180 1280 LINE SMOOTH",
"125 1280 OFFCURVE",
"80 1235 OFFCURVE",
"80 1180 CURVE SMOOTH",
"80 100 LINE SMOOTH",
"80 45 OFFCURVE",
"125 0 OFFCURVE",
"180 0 CURVE SMOOTH",
"235 0 OFFCURVE",
"280 45 OFFCURVE",
"280 100 CURVE SMOOTH",
"280 1080 LINE",
"620 1080 LINE",
"620 100 LINE SMOOTH",
"620 45 OFFCURVE",
"665 0 OFFCURVE",
"720 0 CURVE SMOOTH",
"775 0 OFFCURVE",
"820 45 OFFCURVE",
"820 100 CURVE SMOOTH",
"820 1080 LINE",
"1160 1080 LINE",
"1160 100 LINE SMOOTH",
"1160 45 OFFCURVE",
"1205 0 OFFCURVE",
"1260 0 CURVE SMOOTH",
"1315 0 OFFCURVE",
"1360 45 OFFCURVE",
"1360 100 CURVE SMOOTH",
"1360 1180 LINE SMOOTH",
"1360 1235 OFFCURVE",
"1315 1280 OFFCURVE",
"1260 1280 CURVE SMOOTH"
);
}
);
width = 1440;
}
);
unicode = 004D;
},
{
glyphname = N;
lastChange = "2014-01-05 15:06:59 +0000";
layers = (
{
layerId = "940E2F63-624A-4C3D-A909-721782B4CF41";
name = Regular;
paths = (
{
closed = 1;
nodes = (
"1205 1280 OFFCURVE",
"1160 1235 OFFCURVE",
"1160 1180 CURVE SMOOTH",
"1160 200 LINE",
"820 200 LINE",
"820 1180 LINE SMOOTH",
"820 1235 OFFCURVE",
"775 1280 OFFCURVE",
"720 1280 CURVE SMOOTH",
"180 1280 LINE SMOOTH",
"125 1280 OFFCURVE",
"80 1235 OFFCURVE",
"80 1180 CURVE SMOOTH",
"80 100 LINE SMOOTH",
"80 45 OFFCURVE",
"125 0 OFFCURVE",
"180 0 CURVE SMOOTH",
"235 0 OFFCURVE",
"280 45 OFFCURVE",
"280 100 CURVE SMOOTH",
"280 1080 LINE",
"620 1080 LINE",
"620 100 LINE SMOOTH",
"620 45 OFFCURVE",
"665 0 OFFCURVE",
"720 0 CURVE SMOOTH",
"1260 0 LINE SMOOTH",
"1315 0 OFFCURVE",
"1360 45 OFFCURVE",
"1360 100 CURVE SMOOTH",
"1360 1180 LINE SMOOTH",
"1360 1235 OFFCURVE",
"1315 1280 OFFCURVE",
"1260 1280 CURVE SMOOTH"
);
}
);
width = 1440;
}
);
unicode = 004E;
},
{
glyphname = O;
lastChange = "2014-01-05 15:06:59 +0000";
layers = (
{
layerId = "940E2F63-624A-4C3D-A909-721782B4CF41";
name = Regular;
paths = (
{
closed = 1;
nodes = (
"180 1280 LINE SMOOTH",
"125 1280 OFFCURVE",
"80 1235 OFFCURVE",
"80 1180 CURVE SMOOTH",
"80 100 LINE SMOOTH",
"80 45 OFFCURVE",
"125 0 OFFCURVE",
"180 0 CURVE SMOOTH",
"1260 0 LINE SMOOTH",
"1315 0 OFFCURVE",
"1360 45 OFFCURVE",
"1360 100 CURVE SMOOTH",
"1360 1180 LINE SMOOTH",
"1360 1235 OFFCURVE",
"1315 1280 OFFCURVE",
"1260 1280 CURVE SMOOTH"
);
},
{
closed = 1;
nodes = (
"1160 200 LINE",
"280 200 LINE",
"280 1080 LINE",
"1160 1080 LINE"
);
}
);
width = 1440;
}
);
unicode = 004F;
},
{
glyphname = P;
lastChange = "2014-01-05 15:06:59 +0000";
layers = (
{
layerId = "940E2F63-624A-4C3D-A909-721782B4CF41";
name = Regular;
paths = (
{
closed = 1;
nodes = (
"180 1280 LINE SMOOTH",
"125 1280 OFFCURVE",
"80 1235 OFFCURVE",
"80 1180 CURVE SMOOTH",
"80 100 LINE SMOOTH",
"80 45 OFFCURVE",
"125 0 OFFCURVE",
"180 0 CURVE SMOOTH",
"235 0 OFFCURVE",
"280 45 OFFCURVE",
"280 100 CURVE SMOOTH",
"280 1080 LINE",
"1160 1080 LINE",
"1161 740 LINE",
"720 740 LINE SMOOTH",
"665 740 OFFCURVE",
"620 695 OFFCURVE",
"620 640 CURVE SMOOTH",
"620 585 OFFCURVE",
"665 540 OFFCURVE",
"720 540 CURVE SMOOTH",
"1260 540 LINE SMOOTH",
"1315 540 OFFCURVE",
"1360 585 OFFCURVE",
"1360 640 CURVE SMOOTH",
"1360 1180 LINE SMOOTH",
"1360 1235 OFFCURVE",
"1315 1280 OFFCURVE",
"1260 1280 CURVE SMOOTH"
);
}
);
width = 1440;
}
);
unicode = 0050;
},
{
glyphname = Q;
lastChange = "2014-01-05 15:06:59 +0000";
layers = (
{
layerId = "940E2F63-624A-4C3D-A909-721782B4CF41";
name = Regular;
paths = (
{
closed = 1;
nodes = (
"180 1280 LINE SMOOTH",
"125 1280 OFFCURVE",
"80 1235 OFFCURVE",
"80 1180 CURVE SMOOTH",
"80 100 LINE SMOOTH",
"80 45 OFFCURVE",
"125 0 OFFCURVE",
"180 0 CURVE SMOOTH",
"1260 0 LINE SMOOTH",
"1315 0 OFFCURVE",
"1360 45 OFFCURVE",
"1360 100 CURVE SMOOTH",
"1360 1180 LINE SMOOTH",
"1360 1235 OFFCURVE",
"1315 1280 OFFCURVE",
"1260 1280 CURVE SMOOTH"
);
},
{
closed = 1;
nodes = (
"1160 200 LINE",
"820 200 LINE",
"820 640 LINE SMOOTH",
"820 695 OFFCURVE",
"775 740 OFFCURVE",
"720 740 CURVE SMOOTH",
"665 740 OFFCURVE",
"620 695 OFFCURVE",
"620 640 CURVE SMOOTH",
"620 200 LINE",
"280 200 LINE",
"280 1080 LINE",
"1160 1080 LINE"
);
}
);
width = 1440;
}
);
unicode = 0051;
},
{
glyphname = R;
lastChange = "2014-01-05 15:06:59 +0000";
layers = (
{
layerId = "940E2F63-624A-4C3D-A909-721782B4CF41";
name = Regular;
paths = (
{
closed = 1;
nodes = (
"180 1280 LINE SMOOTH",
"125 1280 OFFCURVE",
"80 1235 OFFCURVE",
"80 1180 CURVE SMOOTH",
"80 100 LINE SMOOTH",
"80 45 OFFCURVE",
"125 0 OFFCURVE",
"180 0 CURVE SMOOTH",
"235 0 OFFCURVE",
"280 45 OFFCURVE",
"280 100 CURVE SMOOTH",
"280 1080 LINE",
"1160 1080 LINE",
"1160 740 LINE",
"720 740 LINE SMOOTH",
"665 740 OFFCURVE",
"620 695 OFFCURVE",
"620 640 CURVE SMOOTH",
"620 100 LINE SMOOTH",
"620 45 OFFCURVE",
"665 0 OFFCURVE",
"720 0 CURVE SMOOTH",
"1260 0 LINE SMOOTH",
"1315 0 OFFCURVE",
"1360 45 OFFCURVE",
"1360 100 CURVE SMOOTH",
"1360 155 OFFCURVE",
"1315 200 OFFCURVE",
"1260 200 CURVE SMOOTH",
"820 200 LINE",
"820 540 LINE",
"1260 540 LINE SMOOTH",
"1315 540 OFFCURVE",
"1360 585 OFFCURVE",
"1360 640 CURVE SMOOTH",
"1360 1180 LINE SMOOTH",
"1360 1235 OFFCURVE",
"1315 1280 OFFCURVE",
"1260 1280 CURVE SMOOTH"
);
}
);
width = 1440;
}
);
unicode = 0052;
},
{
glyphname = T;
lastChange = "2014-01-05 15:06:59 +0000";
layers = (
{
layerId = "940E2F63-624A-4C3D-A909-721782B4CF41";
name = Regular;
paths = (
{
closed = 1;
nodes = (
"180 1280 LINE SMOOTH",
"125 1280 OFFCURVE",
"80 1235 OFFCURVE",
"80 1180 CURVE SMOOTH",
"80 1125 OFFCURVE",
"125 1080 OFFCURVE",
"180 1080 CURVE SMOOTH",
"620 1080 LINE",
"620 100 LINE SMOOTH",
"620 45 OFFCURVE",
"665 0 OFFCURVE",
"720 0 CURVE SMOOTH",
"775 0 OFFCURVE",
"820 45 OFFCURVE",
"820 100 CURVE SMOOTH",
"820 1080 LINE",
"1260 1080 LINE SMOOTH",
"1315 1080 OFFCURVE",
"1360 1125 OFFCURVE",
"1360 1180 CURVE SMOOTH",
"1360 1235 OFFCURVE",
"1315 1280 OFFCURVE",
"1260 1280 CURVE SMOOTH"
);
}
);
width = 1440;
}
);
unicode = 0054;
},
{
glyphname = V;
lastChange = "2014-01-05 15:06:59 +0000";
layers = (
{
layerId = "940E2F63-624A-4C3D-A909-721782B4CF41";
name = Regular;
paths = (
{
closed = 1;
nodes = (
"1205 1280 OFFCURVE",
"1160 1235 OFFCURVE",
"1160 1180 CURVE SMOOTH",
"1160 740 LINE",
"720 740 LINE SMOOTH",
"665 740 OFFCURVE",
"620 695 OFFCURVE",
"620 640 CURVE SMOOTH",
"620 200 LINE",
"280 200 LINE",
"280 1180 LINE SMOOTH",
"280 1235 OFFCURVE",
"235 1280 OFFCURVE",
"180 1280 CURVE SMOOTH",
"125 1280 OFFCURVE",
"80 1235 OFFCURVE",
"80 1180 CURVE SMOOTH",
"80 100 LINE SMOOTH",
"80 45 OFFCURVE",
"125 0 OFFCURVE",
"180 0 CURVE SMOOTH",
"720 0 LINE SMOOTH",
"775 0 OFFCURVE",
"820 45 OFFCURVE",
"820 100 CURVE SMOOTH",
"820 540 LINE",
"1260 540 LINE SMOOTH",
"1315 540 OFFCURVE",
"1360 585 OFFCURVE",
"1360 640 CURVE SMOOTH",
"1360 1180 LINE SMOOTH",
"1360 1235 OFFCURVE",
"1315 1280 OFFCURVE",
"1260 1280 CURVE SMOOTH"
);
}
);
width = 1440;
}
);
unicode = 0056;
},
{
glyphname = X;
lastChange = "2014-01-05 15:06:59 +0000";
layers = (
{
layerId = "940E2F63-624A-4C3D-A909-721782B4CF41";
name = Regular;
paths = (
{
closed = 1;
nodes = (
"180 1280 LINE SMOOTH",
"125 1280 OFFCURVE",
"80 1235 OFFCURVE",
"80 1180 CURVE SMOOTH",
"80 640 LINE SMOOTH",
"80 585 OFFCURVE",
"125 540 OFFCURVE",
"180 540 CURVE SMOOTH",
"235 540 OFFCURVE",
"280 585 OFFCURVE",
"280 640 CURVE SMOOTH",
"280 1080 LINE",
"620 1080 LINE",
"620 200 LINE",
"180 200 LINE SMOOTH",
"125 200 OFFCURVE",
"80 155 OFFCURVE",
"80 100 CURVE SMOOTH",
"80 45 OFFCURVE",
"125 0 OFFCURVE",
"180 0 CURVE SMOOTH",
"1260 0 LINE SMOOTH",
"1315 0 OFFCURVE",
"1360 45 OFFCURVE",
"1360 100 CURVE SMOOTH",
"1360 640 LINE SMOOTH",
"1360 695 OFFCURVE",
"1315 740 OFFCURVE",
"1260 740 CURVE SMOOTH",
"1205 740 OFFCURVE",
"1160 695 OFFCURVE",
"1160 640 CURVE SMOOTH",
"1160 200 LINE",
"820 200 LINE",
"820 1080 LINE",
"1260 1080 LINE SMOOTH",
"1315 1080 OFFCURVE",
"1360 1125 OFFCURVE",
"1360 1180 CURVE SMOOTH",
"1360 1235 OFFCURVE",
"1315 1280 OFFCURVE",
"1260 1280 CURVE SMOOTH"
);
}
);
width = 1440;
}
);
unicode = 0058;
},
{
glyphname = Y;
lastChange = "2014-01-05 15:06:59 +0000";
layers = (
{
layerId = "940E2F63-624A-4C3D-A909-721782B4CF41";
name = Regular;
paths = (
{
closed = 1;
nodes = (
"1205 1280 OFFCURVE",
"1160 1235 OFFCURVE",
"1160 1180 CURVE SMOOTH",
"1160 740 LINE",
"280 740 LINE",
"280 1180 LINE SMOOTH",
"280 1235 OFFCURVE",
"235 1280 OFFCURVE",
"180 1280 CURVE SMOOTH",
"125 1280 OFFCURVE",
"80 1235 OFFCURVE",
"80 1180 CURVE SMOOTH",
"80 640 LINE SMOOTH",
"80 585 OFFCURVE",
"125 540 OFFCURVE",
"180 540 CURVE SMOOTH",
"1160 540 LINE",
"1160 200 LINE",
"180 200 LINE SMOOTH",
"125 200 OFFCURVE",
"80 155 OFFCURVE",
"80 100 CURVE SMOOTH",
"80 45 OFFCURVE",
"125 0 OFFCURVE",
"180 0 CURVE SMOOTH",
"1260 0 LINE SMOOTH",
"1315 0 OFFCURVE",
"1360 45 OFFCURVE",
"1360 100 CURVE SMOOTH",
"1360 1180 LINE SMOOTH",
"1360 1235 OFFCURVE",
"1315 1280 OFFCURVE",
"1260 1280 CURVE SMOOTH"
);
}
);
width = 1440;
}
);
unicode = 0059;
},
{
glyphname = zero;
lastChange = "2014-01-05 15:06:59 +0000";
layers = (
{
components = (
{
name = O;
transform = "{1, 0, 0, 1, 0, 0}";
}
);
layerId = "940E2F63-624A-4C3D-A909-721782B4CF41";
name = Regular;
paths = (
{
closed = 1;
nodes = (
"665 740 OFFCURVE",
"620 695 OFFCURVE",
"620 640 CURVE SMOOTH",
"620 585 OFFCURVE",
"665 540 OFFCURVE",
"720 540 CURVE SMOOTH",
"775 540 OFFCURVE",
"820 585 OFFCURVE",
"820 640 CURVE SMOOTH",
"820 695 OFFCURVE",
"775 740 OFFCURVE",
"720 740 CURVE SMOOTH"
);
}
);
width = 1440;
}
);
unicode = 0030;
},
{
glyphname = one;
lastChange = "2014-01-05 15:06:59 +0000";
layers = (
{
layerId = "940E2F63-624A-4C3D-A909-721782B4CF41";
name = Regular;
paths = (
{
closed = 1;
nodes = (
"180 1280 LINE SMOOTH",
"125 1280 OFFCURVE",
"80 1235 OFFCURVE",
"80 1180 CURVE SMOOTH",
"80 1125 OFFCURVE",
"125 1080 OFFCURVE",
"180 1080 CURVE SMOOTH",
"620 1080 LINE",
"620 200 LINE",
"180 200 LINE SMOOTH",
"125 200 OFFCURVE",
"80 155 OFFCURVE",
"80 100 CURVE SMOOTH",
"80 45 OFFCURVE",
"125 0 OFFCURVE",
"180 0 CURVE SMOOTH",
"1260 0 LINE SMOOTH",
"1315 0 OFFCURVE",
"1360 45 OFFCURVE",
"1360 100 CURVE SMOOTH",
"1360 155 OFFCURVE",
"1315 200 OFFCURVE",
"1260 200 CURVE SMOOTH",
"820 200 LINE",
"820 1180 LINE SMOOTH",
"820 1235 OFFCURVE",
"775 1280 OFFCURVE",
"720 1280 CURVE SMOOTH"
);
}
);
width = 1440;
}
);
unicode = 0031;
},
{
glyphname = seven;
lastChange = "2014-01-05 15:06:59 +0000";
layers = (
{
layerId = "940E2F63-624A-4C3D-A909-721782B4CF41";
name = Regular;
paths = (
{
closed = 1;
nodes = (
"180 1280 LINE SMOOTH",
"125 1280 OFFCURVE",
"80 1235 OFFCURVE",
"80 1180 CURVE SMOOTH",
"80 1125 OFFCURVE",
"125 1080 OFFCURVE",
"180 1080 CURVE SMOOTH",
"1160 1080 LINE",
"1160 740 LINE",
"720 740 LINE SMOOTH",
"665 740 OFFCURVE",
"620 695 OFFCURVE",
"620 640 CURVE SMOOTH",
"620 100 LINE SMOOTH",
"620 45 OFFCURVE",
"665 0 OFFCURVE",
"720 0 CURVE SMOOTH",
"775 0 OFFCURVE",
"820 45 OFFCURVE",
"820 100 CURVE SMOOTH",
"820 540 LINE",
"1260 540 LINE SMOOTH",
"1315 540 OFFCURVE",
"1360 585 OFFCURVE",
"1360 640 CURVE SMOOTH",
"1360 1180 LINE SMOOTH",
"1360 1235 OFFCURVE",
"1315 1280 OFFCURVE",
"1260 1280 CURVE SMOOTH"
);
}
);
width = 1440;
}
);
unicode = 0037;
},
{
glyphname = eight;
lastChange = "2014-01-05 15:06:59 +0000";
layers = (
{
layerId = "940E2F63-624A-4C3D-A909-721782B4CF41";
name = Regular;
paths = (
{
closed = 1;
nodes = (
"180 1280 LINE SMOOTH",
"125 1280 OFFCURVE",
"80 1235 OFFCURVE",
"80 1180 CURVE SMOOTH",
"80 100 LINE SMOOTH",
"80 45 OFFCURVE",
"125 0 OFFCURVE",
"180 0 CURVE SMOOTH",
"1260 0 LINE SMOOTH",
"1315 0 OFFCURVE",
"1360 45 OFFCURVE",
"1360 100 CURVE SMOOTH",
"1360 1180 LINE SMOOTH",
"1360 1235 OFFCURVE",
"1315 1280 OFFCURVE",
"1260 1280 CURVE SMOOTH"
);
},
{
closed = 1;
nodes = (
"1160 200 LINE",
"280 200 LINE",
"280 540 LINE",
"1160 540 LINE"
);
},
{
closed = 1;
nodes = (
"1160 740 LINE",
"280 740 LINE",
"280 1080 LINE",
"1160 1080 LINE"
);
}
);
width = 1440;
}
);
unicode = 0038;
},
{
glyphname = asterisk;
lastChange = "2014-01-05 15:06:59 +0000";
layers = (
{
components = (
{
name = plus;
transform = "{1, 0, 0, 1, 0, 0}";
}
);
layerId = "940E2F63-624A-4C3D-A909-721782B4CF41";
name = Regular;
paths = (
{
closed = 1;
nodes = (
"1205 1280 OFFCURVE",
"1160 1235 OFFCURVE",
"1160 1180 CURVE SMOOTH",
"1160 1125 OFFCURVE",
"1205 1080 OFFCURVE",
"1260 1080 CURVE SMOOTH",
"1315 1080 OFFCURVE",
"1360 1125 OFFCURVE",
"1360 1180 CURVE SMOOTH",
"1360 1235 OFFCURVE",
"1315 1280 OFFCURVE",
"1260 1280 CURVE SMOOTH"
);
},
{
closed = 1;
nodes = (
"125 200 OFFCURVE",
"80 155 OFFCURVE",
"80 100 CURVE SMOOTH",
"80 45 OFFCURVE",
"125 0 OFFCURVE",
"180 0 CURVE SMOOTH",
"235 0 OFFCURVE",
"280 45 OFFCURVE",
"280 100 CURVE SMOOTH",
"280 155 OFFCURVE",
"235 200 OFFCURVE",
"180 200 CURVE SMOOTH"
);
},
{
closed = 1;
nodes = (
"125 1280 OFFCURVE",
"80 1235 OFFCURVE",
"80 1180 CURVE SMOOTH",
"80 1125 OFFCURVE",
"125 1080 OFFCURVE",
"180 1080 CURVE SMOOTH",
"235 1080 OFFCURVE",
"280 1125 OFFCURVE",
"280 1180 CURVE SMOOTH",
"280 1235 OFFCURVE",
"235 1280 OFFCURVE",
"180 1280 CURVE SMOOTH"
);
},
{
closed = 1;
nodes = (
"1205 200 OFFCURVE",
"1160 155 OFFCURVE",
"1160 100 CURVE SMOOTH",
"1160 45 OFFCURVE",
"1205 0 OFFCURVE",
"1260 0 CURVE SMOOTH",
"1315 0 OFFCURVE",
"1360 45 OFFCURVE",
"1360 100 CURVE SMOOTH",
"1360 155 OFFCURVE",
"1315 200 OFFCURVE",
"1260 200 CURVE SMOOTH"
);
}
);
width = 1440;
}
);
unicode = 002A;
},
{
glyphname = backslash;
lastChange = "2014-01-05 15:06:59 +0000";
layers = (
{
layerId = "940E2F63-624A-4C3D-A909-721782B4CF41";
name = Regular;
paths = (
{
closed = 1;
nodes = (
"1205 1280 OFFCURVE",
"1160 1235 OFFCURVE",
"1160 1180 CURVE SMOOTH",
"1160 100 LINE SMOOTH",
"1160 45 OFFCURVE",
"1205 0 OFFCURVE",
"1260 0 CURVE SMOOTH",
"1315 0 OFFCURVE",
"1360 45 OFFCURVE",
"1360 100 CURVE SMOOTH",
"1360 1180 LINE SMOOTH",
"1360 1235 OFFCURVE",
"1315 1280 OFFCURVE",
"1260 1280 CURVE SMOOTH"
);
},
{
closed = 1;
nodes = (
"125 1280 OFFCURVE",
"80 1235 OFFCURVE",
"80 1180 CURVE SMOOTH",
"80 100 LINE SMOOTH",
"80 45 OFFCURVE",
"125 0 OFFCURVE",
"180 0 CURVE SMOOTH",
"235 0 OFFCURVE",
"280 45 OFFCURVE",
"280 100 CURVE SMOOTH",
"280 1180 LINE SMOOTH",
"280 1235 OFFCURVE",
"235 1280 OFFCURVE",
"180 1280 CURVE SMOOTH"
);
},
{
closed = 1;
nodes = (
"665 1280 OFFCURVE",
"620 1235 OFFCURVE",
"620 1180 CURVE SMOOTH",
"620 100 LINE SMOOTH",
"620 45 OFFCURVE",
"665 0 OFFCURVE",
"720 0 CURVE SMOOTH",
"775 0 OFFCURVE",
"820 45 OFFCURVE",
"820 100 CURVE SMOOTH",
"820 1180 LINE SMOOTH",
"820 1235 OFFCURVE",
"775 1280 OFFCURVE",
"720 1280 CURVE SMOOTH"
);
}
);
width = 1440;
}
);
unicode = 005C;
},
{
glyphname = comma;
lastChange = "2014-01-05 15:06:59 +0000";
layers = (
{
layerId = "940E2F63-624A-4C3D-A909-721782B4CF41";
name = Regular;
paths = (
{
closed = 1;
nodes = (
"180 1280 LINE SMOOTH",
"125 1280 OFFCURVE",
"80 1235 OFFCURVE",
"80 1180 CURVE SMOOTH",
"80 100 LINE SMOOTH",
"80 45 OFFCURVE",
"125 0 OFFCURVE",
"180 0 CURVE SMOOTH",
"1260 0 LINE SMOOTH",
"1315 0 OFFCURVE",
"1360 45 OFFCURVE",
"1360 100 CURVE SMOOTH",
"1360 1180 LINE SMOOTH",
"1360 1235 OFFCURVE",
"1315 1280 OFFCURVE",
"1260 1280 CURVE SMOOTH"
);
}
);
width = 1440;
}
);
unicode = 002C;
},
{
glyphname = ellipsis;
lastChange = "2014-01-05 15:06:59 +0000";
layers = (
{
layerId = "940E2F63-624A-4C3D-A909-721782B4CF41";
name = Regular;
paths = (
{
closed = 1;
nodes = (
"180 1280 LINE SMOOTH",
"125 1280 OFFCURVE",
"80 1235 OFFCURVE",
"80 1180 CURVE SMOOTH",
"80 1125 OFFCURVE",
"125 1080 OFFCURVE",
"180 1080 CURVE SMOOTH",
"1260 1080 LINE SMOOTH",
"1315 1080 OFFCURVE",
"1360 1125 OFFCURVE",
"1360 1180 CURVE SMOOTH",
"1360 1235 OFFCURVE",
"1315 1280 OFFCURVE",
"1260 1280 CURVE SMOOTH"
);
},
{
closed = 1;
nodes = (
"125 200 OFFCURVE",
"80 155 OFFCURVE",
"80 100 CURVE SMOOTH",
"80 45 OFFCURVE",
"125 0 OFFCURVE",
"180 0 CURVE SMOOTH",
"235 0 OFFCURVE",
"280 45 OFFCURVE",
"280 100 CURVE SMOOTH",
"280 155 OFFCURVE",
"235 200 OFFCURVE",
"180 200 CURVE SMOOTH"
);
},
{
closed = 1;
nodes = (
"665 200 OFFCURVE",
"620 155 OFFCURVE",
"620 100 CURVE SMOOTH",
"620 45 OFFCURVE",
"665 0 OFFCURVE",
"720 0 CURVE SMOOTH",
"775 0 OFFCURVE",
"820 45 OFFCURVE",
"820 100 CURVE SMOOTH",
"820 155 OFFCURVE",
"775 200 OFFCURVE",
"720 200 CURVE SMOOTH"
);
},
{
closed = 1;
nodes = (
"180 740 LINE SMOOTH",
"125 740 OFFCURVE",
"80 695 OFFCURVE",
"80 640 CURVE SMOOTH",
"80 585 OFFCURVE",
"125 540 OFFCURVE",
"180 540 CURVE SMOOTH",
"1260 540 LINE SMOOTH",
"1315 540 OFFCURVE",
"1360 585 OFFCURVE",
"1360 640 CURVE SMOOTH",
"1360 695 OFFCURVE",
"1315 740 OFFCURVE",
"1260 740 CURVE SMOOTH"
);
},
{
closed = 1;
nodes = (
"1205 200 OFFCURVE",
"1160 155 OFFCURVE",
"1160 100 CURVE SMOOTH",
"1160 45 OFFCURVE",
"1205 0 OFFCURVE",
"1260 0 CURVE SMOOTH",
"1315 0 OFFCURVE",
"1360 45 OFFCURVE",
"1360 100 CURVE SMOOTH",
"1360 155 OFFCURVE",
"1315 200 OFFCURVE",
"1260 200 CURVE SMOOTH"
);
}
);
width = 1440;
}
);
unicode = 2026;
},
{
glyphname = exclam;
lastChange = "2014-01-05 15:06:59 +0000";
layers = (
{
layerId = "940E2F63-624A-4C3D-A909-721782B4CF41";
name = Regular;
paths = (
{
closed = 1;
nodes = (
"1205 1280 OFFCURVE",
"1160 1235 OFFCURVE",
"1160 1180 CURVE SMOOTH",
"1160 640 LINE SMOOTH",
"1160 585 OFFCURVE",
"1205 540 OFFCURVE",
"1260 540 CURVE SMOOTH",
"1315 540 OFFCURVE",
"1360 585 OFFCURVE",
"1360 640 CURVE SMOOTH",
"1360 1180 LINE SMOOTH",
"1360 1235 OFFCURVE",
"1315 1280 OFFCURVE",
"1260 1280 CURVE SMOOTH"
);
},
{
closed = 1;
nodes = (
"125 200 OFFCURVE",
"80 155 OFFCURVE",
"80 100 CURVE SMOOTH",
"80 45 OFFCURVE",
"125 0 OFFCURVE",
"180 0 CURVE SMOOTH",
"235 0 OFFCURVE",
"280 45 OFFCURVE",
"280 100 CURVE SMOOTH",
"280 155 OFFCURVE",
"235 200 OFFCURVE",
"180 200 CURVE SMOOTH"
);
},
{
closed = 1;
nodes = (
"665 200 OFFCURVE",
"620 155 OFFCURVE",
"620 100 CURVE SMOOTH",
"620 45 OFFCURVE",
"665 0 OFFCURVE",
"720 0 CURVE SMOOTH",
"775 0 OFFCURVE",
"820 45 OFFCURVE",
"820 100 CURVE SMOOTH",
"820 155 OFFCURVE",
"775 200 OFFCURVE",
"720 200 CURVE SMOOTH"
);
},
{
closed = 1;
nodes = (
"125 1280 OFFCURVE",
"80 1235 OFFCURVE",
"80 1180 CURVE SMOOTH",
"80 640 LINE SMOOTH",
"80 585 OFFCURVE",
"125 540 OFFCURVE",
"180 540 CURVE SMOOTH",
"235 540 OFFCURVE",
"280 585 OFFCURVE",
"280 640 CURVE SMOOTH",
"280 1180 LINE SMOOTH",
"280 1235 OFFCURVE",
"235 1280 OFFCURVE",
"180 1280 CURVE SMOOTH"
);
},
{
closed = 1;
nodes = (
"1205 200 OFFCURVE",
"1160 155 OFFCURVE",
"1160 100 CURVE SMOOTH",
"1160 45 OFFCURVE",
"1205 0 OFFCURVE",
"1260 0 CURVE SMOOTH",
"1315 0 OFFCURVE",
"1360 45 OFFCURVE",
"1360 100 CURVE SMOOTH",
"1360 155 OFFCURVE",
"1315 200 OFFCURVE",
"1260 200 CURVE SMOOTH"
);
},
{
closed = 1;
nodes = (
"665 1280 OFFCURVE",
"620 1235 OFFCURVE",
"620 1180 CURVE SMOOTH",
"620 640 LINE SMOOTH",
"620 585 OFFCURVE",
"665 540 OFFCURVE",
"720 540 CURVE SMOOTH",
"775 540 OFFCURVE",
"820 585 OFFCURVE",
"820 640 CURVE SMOOTH",
"820 1180 LINE SMOOTH",
"820 1235 OFFCURVE",
"775 1280 OFFCURVE",
"720 1280 CURVE SMOOTH"
);
}
);
width = 1440;
}
);
unicode = 0021;
},
{
color = 1;
glyphname = numbersign;
lastChange = "2014-01-05 15:06:59 +0000";
layers = (
{
layerId = "940E2F63-624A-4C3D-A909-721782B4CF41";
name = Regular;
paths = (
{
closed = 1;
nodes = (
"180 1280 LINE SMOOTH",
"125 1280 OFFCURVE",
"80 1235 OFFCURVE",
"80 1180 CURVE SMOOTH",
"80 100 LINE SMOOTH",
"80 45 OFFCURVE",
"125 0 OFFCURVE",
"180 0 CURVE SMOOTH",
"1260 0 LINE SMOOTH",
"1315 0 OFFCURVE",
"1360 45 OFFCURVE",
"1360 100 CURVE SMOOTH",
"1360 1180 LINE SMOOTH",
"1360 1235 OFFCURVE",
"1315 1280 OFFCURVE",
"1260 1280 CURVE SMOOTH"
);
},
{
closed = 1;
nodes = (
"620 200 LINE",
"280 200 LINE",
"280 540 LINE",
"620 540 LINE"
);
},
{
closed = 1;
nodes = (
"620 740 LINE",
"280 740 LINE",
"280 1080 LINE",
"620 1080 LINE"
);
},
{
closed = 1;
nodes = (
"1160 200 LINE",
"820 200 LINE",
"820 540 LINE",
"1160 540 LINE"
);
},
{
closed = 1;
nodes = (
"1160 740 LINE",
"820 740 LINE",
"820 1080 LINE",
"1160 1080 LINE"
);
}
);
width = 1440;
}
);
unicode = 0023;
},
{
glyphname = question;
lastChange = "2014-01-05 15:06:59 +0000";
layers = (
{
layerId = "940E2F63-624A-4C3D-A909-721782B4CF41";
name = Regular;
paths = (
{
closed = 1;
nodes = (
"180 1280 LINE SMOOTH",
"125 1280 OFFCURVE",
"80 1235 OFFCURVE",
"80 1180 CURVE SMOOTH",
"80 1125 OFFCURVE",
"125 1080 OFFCURVE",
"180 1080 CURVE SMOOTH",
"1160 1080 LINE",
"1160 740 LINE",
"720 740 LINE SMOOTH",
"665 740 OFFCURVE",
"620 695 OFFCURVE",
"620 640 CURVE SMOOTH",
"620 585 OFFCURVE",
"665 540 OFFCURVE",
"720 540 CURVE SMOOTH",
"1260 540 LINE SMOOTH",
"1315 540 OFFCURVE",
"1360 585 OFFCURVE",
"1360 640 CURVE SMOOTH",
"1360 1180 LINE SMOOTH",
"1360 1235 OFFCURVE",
"1315 1280 OFFCURVE",
"1260 1280 CURVE SMOOTH"
);
},
{
closed = 1;
nodes = (
"665 200 OFFCURVE",
"620 155 OFFCURVE",
"620 100 CURVE SMOOTH",
"620 45 OFFCURVE",
"665 0 OFFCURVE",
"720 0 CURVE SMOOTH",
"775 0 OFFCURVE",
"820 45 OFFCURVE",
"820 100 CURVE SMOOTH",
"820 155 OFFCURVE",
"775 200 OFFCURVE",
"720 200 CURVE SMOOTH"
);
}
);
width = 1440;
}
);
unicode = 003F;
},
{
glyphname = braceleft;
lastChange = "2014-01-05 15:06:59 +0000";
layers = (
{
layerId = "940E2F63-624A-4C3D-A909-721782B4CF41";
name = Regular;
paths = (
{
closed = 1;
nodes = (
"720 1280 LINE SMOOTH",
"665 1280 OFFCURVE",
"620 1235 OFFCURVE",
"620 1180 CURVE SMOOTH",
"620 740 LINE",
"180 740 LINE SMOOTH",
"125 740 OFFCURVE",
"80 695 OFFCURVE",
"80 640 CURVE SMOOTH",
"80 585 OFFCURVE",
"125 540 OFFCURVE",
"180 540 CURVE SMOOTH",
"620 540 LINE",
"620 100 LINE SMOOTH",
"620 45 OFFCURVE",
"665 0 OFFCURVE",
"720 0 CURVE SMOOTH",
"1260 0 LINE SMOOTH",
"1315 0 OFFCURVE",
"1360 45 OFFCURVE",
"1360 100 CURVE SMOOTH",
"1360 155 OFFCURVE",
"1315 200 OFFCURVE",
"1260 200 CURVE SMOOTH",
"820 200 LINE",
"820 1080 LINE",
"1260 1080 LINE SMOOTH",
"1315 1080 OFFCURVE",
"1360 1125 OFFCURVE",
"1360 1180 CURVE SMOOTH",
"1360 1235 OFFCURVE",
"1315 1280 OFFCURVE",
"1260 1280 CURVE SMOOTH"
);
}
);
width = 1440;
}
);
unicode = 007B;
},
{
color = 0;
glyphname = dollar;
lastChange = "2014-01-05 15:06:59 +0000";
layers = (
{
components = (
{
name = S;
transform = "{1, 0, 0, 1, 0, 0}";
}
);
layerId = "940E2F63-624A-4C3D-A909-721782B4CF41";
name = Regular;
paths = (
{
closed = 1;
nodes = (
"620 1280 LINE",
"620 0 LINE",
"820 0 LINE",
"820 1280 LINE"
);
}
);
width = 1440;
}
);
unicode = 0024;
},
{
color = 0;
glyphname = euro;
lastChange = "2014-01-05 15:06:59 +0000";
layers = (
{
components = (
{
name = braceleft;
transform = "{1, 0, 0, 1, 0, 0}";
}
);
layerId = "940E2F63-624A-4C3D-A909-721782B4CF41";
name = Regular;
paths = (
{
closed = 1;
nodes = (
"620 740 LINE",
"620 540 LINE",
"1260 540 LINE SMOOTH",
"1315 540 OFFCURVE",
"1360 585 OFFCURVE",
"1360 640 CURVE SMOOTH",
"1360 695 OFFCURVE",
"1315 740 OFFCURVE",
"1260 740 CURVE SMOOTH"
);
}
);
width = 1440;
}
);
unicode = 20AC;
},
{
glyphname = divide;
lastChange = "2014-01-05 15:06:59 +0000";
layers = (
{
layerId = "940E2F63-624A-4C3D-A909-721782B4CF41";
name = Regular;
paths = (
{
closed = 1;
nodes = (
"180 740 LINE SMOOTH",
"125 740 OFFCURVE",
"80 695 OFFCURVE",
"80 640 CURVE SMOOTH",
"80 585 OFFCURVE",
"125 540 OFFCURVE",
"180 540 CURVE SMOOTH",
"1260 540 LINE SMOOTH",
"1315 540 OFFCURVE",
"1360 585 OFFCURVE",
"1360 640 CURVE SMOOTH",
"1360 695 OFFCURVE",
"1315 740 OFFCURVE",
"1260 740 CURVE SMOOTH"
);
},
{
closed = 1;
nodes = (
"665 200 OFFCURVE",
"620 155 OFFCURVE",
"620 100 CURVE SMOOTH",
"620 45 OFFCURVE",
"665 0 OFFCURVE",
"720 0 CURVE SMOOTH",
"775 0 OFFCURVE",
"820 45 OFFCURVE",
"820 100 CURVE SMOOTH",
"820 155 OFFCURVE",
"775 200 OFFCURVE",
"720 200 CURVE SMOOTH"
);
},
{
closed = 1;
nodes = (
"665 1280 OFFCURVE",
"620 1235 OFFCURVE",
"620 1180 CURVE SMOOTH",
"620 1125 OFFCURVE",
"665 1080 OFFCURVE",
"720 1080 CURVE SMOOTH",
"775 1080 OFFCURVE",
"820 1125 OFFCURVE",
"820 1180 CURVE SMOOTH",
"820 1235 OFFCURVE",
"775 1280 OFFCURVE",
"720 1280 CURVE SMOOTH"
);
}
);
width = 1440;
}
);
unicode = 00F7;
},
{
color = 0;
glyphname = percent;
lastChange = "2014-01-05 15:06:59 +0000";
layers = (
{
layerId = "940E2F63-624A-4C3D-A909-721782B4CF41";
name = Regular;
paths = (
{
closed = 1;
nodes = (
"1205 1280 OFFCURVE",
"1160 1235 OFFCURVE",
"1160 1180 CURVE SMOOTH",
"1160 740 LINE",
"180 740 LINE SMOOTH",
"125 740 OFFCURVE",
"80 695 OFFCURVE",
"80 640 CURVE SMOOTH",
"80 100 LINE SMOOTH",
"80 45 OFFCURVE",
"125 0 OFFCURVE",
"180 0 CURVE SMOOTH",
"235 0 OFFCURVE",
"280 45 OFFCURVE",
"280 100 CURVE SMOOTH",
"280 540 LINE",
"1260 540 LINE SMOOTH",
"1315 540 OFFCURVE",
"1360 585 OFFCURVE",
"1360 640 CURVE SMOOTH",
"1360 1180 LINE SMOOTH",
"1360 1235 OFFCURVE",
"1315 1280 OFFCURVE",
"1260 1280 CURVE SMOOTH"
);
},
{
closed = 1;
nodes = (
"720 200 LINE SMOOTH",
"665 200 OFFCURVE",
"620 155 OFFCURVE",
"620 100 CURVE SMOOTH",
"620 45 OFFCURVE",
"665 0 OFFCURVE",
"720 0 CURVE SMOOTH",
"1260 0 LINE SMOOTH",
"1315 0 OFFCURVE",
"1360 45 OFFCURVE",
"1360 100 CURVE SMOOTH",
"1360 155 OFFCURVE",
"1315 200 OFFCURVE",
"1260 200 CURVE SMOOTH"
);
},
{
closed = 1;
nodes = (
"180 1280 LINE SMOOTH",
"125 1280 OFFCURVE",
"80 1235 OFFCURVE",
"80 1180 CURVE SMOOTH",
"80 1125 OFFCURVE",
"125 1080 OFFCURVE",
"180 1080 CURVE SMOOTH",
"720 1080 LINE SMOOTH",
"775 1080 OFFCURVE",
"820 1125 OFFCURVE",
"820 1180 CURVE SMOOTH",
"820 1235 OFFCURVE",
"775 1280 OFFCURVE",
"720 1280 CURVE SMOOTH"
);
}
);
width = 1440;
}
);
unicode = 0025;
},
{
glyphname = plus;
lastChange = "2014-01-05 15:06:59 +0000";
layers = (
{
layerId = "940E2F63-624A-4C3D-A909-721782B4CF41";
name = Regular;
paths = (
{
closed = 1;
nodes = (
"665 1280 OFFCURVE",
"620 1235 OFFCURVE",
"620 1180 CURVE SMOOTH",
"620 740 LINE",
"180 740 LINE SMOOTH",
"125 740 OFFCURVE",
"80 695 OFFCURVE",
"80 640 CURVE SMOOTH",
"80 585 OFFCURVE",
"125 540 OFFCURVE",
"180 540 CURVE SMOOTH",
"620 540 LINE",
"620 100 LINE SMOOTH",
"620 45 OFFCURVE",
"665 0 OFFCURVE",
"720 0 CURVE SMOOTH",
"775 0 OFFCURVE",
"820 45 OFFCURVE",
"820 100 CURVE SMOOTH",
"820 540 LINE",
"1260 540 LINE SMOOTH",
"1315 540 OFFCURVE",
"1360 585 OFFCURVE",
"1360 640 CURVE SMOOTH",
"1360 695 OFFCURVE",
"1315 740 OFFCURVE",
"1260 740 CURVE SMOOTH",
"820 740 LINE",
"820 1180 LINE SMOOTH",
"820 1235 OFFCURVE",
"775 1280 OFFCURVE",
"720 1280 CURVE SMOOTH"
);
}
);
width = 1440;
}
);
unicode = 002B;
},
{
glyphname = ampersand;
lastChange = "2014-01-05 15:06:59 +0000";
layers = (
{
layerId = "940E2F63-624A-4C3D-A909-721782B4CF41";
name = Regular;
paths = (
{
closed = 1;
nodes = (
"720 1280 LINE SMOOTH",
"665 1280 OFFCURVE",
"620 1235 OFFCURVE",
"620 1180 CURVE SMOOTH",
"620 740 LINE",
"180 740 LINE SMOOTH",
"125 740 OFFCURVE",
"80 695 OFFCURVE",
"80 640 CURVE SMOOTH",
"80 100 LINE SMOOTH",
"80 45 OFFCURVE",
"125 0 OFFCURVE",
"180 0 CURVE SMOOTH",
"1260 0 LINE SMOOTH",
"1315 0 OFFCURVE",
"1360 45 OFFCURVE",
"1360 100 CURVE SMOOTH",
"1360 155 OFFCURVE",
"1315 200 OFFCURVE",
"1260 200 CURVE SMOOTH",
"280 200 LINE",
"280 540 LINE",
"1260 540 LINE SMOOTH",
"1315 540 OFFCURVE",
"1360 585 OFFCURVE",
"1360 640 CURVE SMOOTH",
"1360 1180 LINE SMOOTH",
"1360 1235 OFFCURVE",
"1315 1280 OFFCURVE",
"1260 1280 CURVE SMOOTH"
);
},
{
closed = 1;
nodes = (
"1160 740 LINE",
"820 740 LINE",
"820 1080 LINE",
"1160 1080 LINE"
);
}
);
width = 1440;
}
);
unicode = 0026;
},
{
glyphname = degree;
lastChange = "2014-01-05 15:06:59 +0000";
layers = (
{
layerId = "940E2F63-624A-4C3D-A909-721782B4CF41";
name = Regular;
paths = (
{
closed = 1;
nodes = (
"1205 740 OFFCURVE",
"1160 695 OFFCURVE",
"1160 640 CURVE SMOOTH",
"1160 200 LINE",
"720 200 LINE SMOOTH",
"665 200 OFFCURVE",
"620 155 OFFCURVE",
"620 100 CURVE SMOOTH",
"620 45 OFFCURVE",
"665 0 OFFCURVE",
"720 0 CURVE SMOOTH",
"1260 0 LINE SMOOTH",
"1315 0 OFFCURVE",
"1360 45 OFFCURVE",
"1360 100 CURVE SMOOTH",
"1360 640 LINE SMOOTH",
"1360 695 OFFCURVE",
"1315 740 OFFCURVE",
"1260 740 CURVE SMOOTH"
);
},
{
closed = 1;
nodes = (
"180 1280 LINE SMOOTH",
"125 1280 OFFCURVE",
"80 1235 OFFCURVE",
"80 1180 CURVE SMOOTH",
"80 640 LINE SMOOTH",
"80 585 OFFCURVE",
"125 540 OFFCURVE",
"180 540 CURVE SMOOTH",
"720 540 LINE SMOOTH",
"775 540 OFFCURVE",
"820 585 OFFCURVE",
"820 640 CURVE SMOOTH",
"820 1180 LINE SMOOTH",
"820 1235 OFFCURVE",
"775 1280 OFFCURVE",
"720 1280 CURVE SMOOTH"
);
},
{
closed = 1;
nodes = (
"620 740 LINE",
"280 740 LINE",
"280 1080 LINE",
"620 1080 LINE"
);
}
);
width = 1440;
}
);
unicode = 00B0;
},
